<svg xmlns="http://www.w3.org/2000/svg" viewBox="0 0 1000 650" role="img" aria-label="Illustrated school sports day">
  <rect width="1000" height="650" fill="#c9ecff"/>
  <rect y="390" width="1000" height="260" fill="#8fd175"/>
  <path d="M0 510h1000" stroke="#fff" stroke-width="10"/>
  <path d="M0 570h1000" stroke="#fff" stroke-width="10"/>
  <circle cx="230" cy="335" r="48" fill="#d0572b"/>
  <circle cx="500" cy="335" r="48" fill="#f2b84b"/>
  <circle cx="770" cy="335" r="48" fill="#243f79"/>
  <path d="M230 383l-70 120m70-120 70 120m-70-90h110" stroke="#173321" stroke-width="22" stroke-linecap="round"/>
  <path d="M500 383l-70 120m70-120 70 120m-70-90h110" stroke="#173321" stroke-width="22" stroke-linecap="round"/>
  <path d="M770 383l-70 120m70-120 70 120m-70-90h110" stroke="#173321" stroke-width="22" stroke-linecap="round"/>
  <path d="M80 155h840" stroke="#fff" stroke-width="28" stroke-linecap="round"/>
  <path d="M130 115v170M870 115v170" stroke="#173321" stroke-width="16" stroke-linecap="round"/>
  <text x="500" y="205" text-anchor="middle" font-family="Georgia, serif" font-size="58" font-weight="700" fill="#173321">Sports Day</text>
</svg>
